<svg width="23" height="23" viewBox="0 0 23 23" fill="none" xmlns="http://www.w3.org/2000/svg">
<rect width="23" height="23" rx="8" fill="black"/>
<path d="M15.6302 8.56637C15.5445 8.52451 15.4611 8.47862 15.3803 8.42888C15.1453 8.282 14.9299 8.10893 14.7386 7.9134C14.2601 7.39568 14.0813 6.87046 14.0155 6.50272H14.0181C13.9631 6.19749 13.9859 6 13.9893 6H11.8096V13.9691C11.8096 14.0761 11.8096 14.1818 11.8049 14.2863C11.8049 14.2993 11.8035 14.3113 11.8027 14.3253C11.8027 14.3311 11.8027 14.3371 11.8014 14.3431C11.8014 14.3446 11.8014 14.3461 11.8014 14.3476C11.7785 14.6335 11.6815 14.9097 11.5191 15.1519C11.3568 15.3941 11.1339 15.5949 10.8702 15.7365C10.5954 15.8843 10.2846 15.9619 9.96836 15.9615C8.95281 15.9615 8.12975 15.1785 8.12975 14.2116C8.12975 13.2446 8.95281 12.4617 9.96836 12.4617C10.1606 12.4615 10.3517 12.4901 10.5344 12.5464L10.5371 10.448C9.98221 10.3803 9.4185 10.422 8.88153 10.5705C8.34455 10.719 7.84595 10.9711 7.4172 11.311C7.04151 11.6196 6.72566 11.9879 6.48388 12.3992C6.39187 12.5492 6.04471 13.1519 6.00267 14.1301C5.97623 14.6853 6.15259 15.2605 6.23666 15.4983V15.5033C6.28954 15.6433 6.49445 16.121 6.82839 16.5237C7.09766 16.8468 7.41579 17.1306 7.77255 17.3659V17.3609L7.77783 17.3659C8.83304 18.0439 10.003 17.9994 10.003 17.9994C10.2055 17.9917 10.884 17.9994 11.6544 17.6542C12.509 17.2714 12.9954 16.7012 12.9954 16.7012C13.3062 16.3605 13.5534 15.9722 13.7262 15.553C13.9235 15.0628 13.9893 14.4748 13.9893 14.2398V10.012C14.0158 10.027 14.3679 10.2473 14.3679 10.2473C14.3679 10.2473 14.8753 10.5548 15.6669 10.755C16.2348 10.8975 17 10.9275 17 10.9275V8.88161C16.7319 8.9091 16.1875 8.82911 15.6302 8.56637Z" fill="white"/>
</svg>
