<svg width="10" height="13" viewBox="0 0 10 13" fill="none" xmlns="http://www.w3.org/2000/svg">
<path d="M7.72727 0H1.28788C0.946312 0 0.618735 0.129355 0.377211 0.359608C0.135687 0.589861 0 0.902151 0 1.22778V11.6639C0 11.8267 0.0678435 11.9828 0.188606 12.098C0.309368 12.2131 0.473156 12.2778 0.643939 12.2778H8.37121C8.542 12.2778 8.70578 12.2131 8.82655 12.098C8.94731 11.9828 9.01515 11.8267 9.01515 11.6639V1.22778C9.01515 0.902151 8.87946 0.589861 8.63794 0.359608C8.39642 0.129355 8.06884 0 7.72727 0ZM3.86364 8.59445H1.93182V7.36667H3.86364V8.59445ZM3.86364 6.13889H1.93182V4.91111H3.86364V6.13889ZM3.86364 3.68333H1.93182V2.45556H3.86364V3.68333ZM7.08333 8.59445H5.15152V7.36667H7.08333V8.59445ZM7.08333 6.13889H5.15152V4.91111H7.08333V6.13889ZM7.08333 3.68333H5.15152V2.45556H7.08333V3.68333Z" fill="#828282"/>
</svg>
