<svg width="10" height="8" viewBox="0 0 10 8" fill="none" xmlns="http://www.w3.org/2000/svg">
<path fill-rule="evenodd" clip-rule="evenodd" d="M5.29286 0.152716C5.25994 0.105566 5.21613 0.0670605 5.16514 0.0404724C5.11416 0.0138843 5.0575 0 5 0C4.9425 0 4.88584 0.0138843 4.83486 0.0404724C4.78387 0.0670605 4.74006 0.105566 4.70714 0.152716L2.45143 3.37533L0.61 1.53333C0.560051 1.48325 0.496357 1.44914 0.426994 1.43531C0.357631 1.42148 0.285722 1.42855 0.220384 1.45563C0.155046 1.48271 0.0992208 1.52858 0.0599861 1.58743C0.0207515 1.64627 -0.000125975 1.71544 5.71894e-07 1.78617V6.42868C5.71894e-07 6.80753 0.15051 7.17087 0.418419 7.43876C0.686328 7.70664 1.04969 7.85714 1.42857 7.85714H8.57143C8.95031 7.85714 9.31367 7.70664 9.58158 7.43876C9.84949 7.17087 10 6.80753 10 6.42868V1.78617C10.0001 1.71544 9.97925 1.64627 9.94001 1.58743C9.90078 1.52858 9.84495 1.48271 9.77962 1.45563C9.71428 1.42855 9.64237 1.42148 9.57301 1.43531C9.50364 1.44914 9.43995 1.48325 9.39 1.53333L7.54857 3.37533L5.29286 0.152716Z" fill="#F79329"/>
</svg>
