<svg width="11" height="11" viewBox="0 0 11 11" fill="none" xmlns="http://www.w3.org/2000/svg">
<path fill-rule="evenodd" clip-rule="evenodd" d="M5.5 0C2.46247 0 0 2.46246 0 5.5C0 6.44958 0.240977 7.34441 0.665116 8.12465L0.262465 10.2904C0.251135 10.3516 0.254862 10.4146 0.273324 10.474C0.291787 10.5335 0.324432 10.5875 0.368443 10.6316C0.412454 10.6756 0.46651 10.7082 0.525949 10.7267C0.585389 10.7451 0.648427 10.7489 0.709628 10.7375L2.87535 10.3344C3.68069 10.7725 4.58318 11.0014 5.5 11C8.53753 11 11 8.53753 11 5.5C11 2.46246 8.53753 0 5.5 0Z" fill="black"/>
</svg>
