<svg width="12" height="12" viewBox="0 0 12 12" fill="none" xmlns="http://www.w3.org/2000/svg">
<path d="M1.56152 7.54102C1.10124 7.06706 0.750326 6.5498 0.508789 5.98926C0.267253 5.42871 0.144206 4.83854 0.139648 4.21875C0.144206 3.61263 0.285482 3.05892 0.563477 2.55762C0.841471 2.05176 1.22201 1.65299 1.70508 1.36133C2.18815 1.0651 2.7168 0.916992 3.29102 0.916992C3.7832 0.916992 4.24121 1.02409 4.66504 1.23828C5.09342 1.44792 5.45345 1.73958 5.74512 2.11328C6.04134 1.73503 6.40137 1.44108 6.8252 1.23145C7.25358 1.02181 7.71615 0.916992 8.21289 0.916992C8.79167 0.916992 9.32259 1.0651 9.80566 1.36133C10.2887 1.65299 10.667 2.05176 10.9404 2.55762C11.2184 3.05892 11.3574 3.61263 11.3574 4.21875C11.3574 4.8431 11.2367 5.43555 10.9951 5.99609C10.7581 6.55208 10.4095 7.06706 9.94922 7.54102L5.74512 11.7246L1.56152 7.54102Z" fill="black"/>
</svg>
