<svg width="80" height="80" viewBox="0 0 80 80" fill="none" xmlns="http://www.w3.org/2000/svg">
<circle cx="40" cy="40" r="40" fill="#D9D9D9"/>
<circle cx="40.0004" cy="21.3333" r="13.3333" fill="#F5F5F5"/>
<ellipse cx="41.3327" cy="56" rx="25.3333" ry="16" fill="#F5F5F5"/>
<circle cx="66.9565" cy="66.9563" r="9.06522" fill="white" stroke="white"/>
<path d="M71.375 63.0625H69.8591L69.1137 61.9447C69.0737 61.8848 69.0197 61.8358 68.9562 61.8018C68.8928 61.7678 68.822 61.75 68.75 61.75H65.25C65.178 61.75 65.1072 61.7678 65.0438 61.8018C64.9803 61.8358 64.9263 61.8848 64.8863 61.9447L64.1404 63.0625H62.625C62.2769 63.0625 61.9431 63.2008 61.6969 63.4469C61.4508 63.6931 61.3125 64.0269 61.3125 64.375V70.5C61.3125 70.8481 61.4508 71.1819 61.6969 71.4281C61.9431 71.6742 62.2769 71.8125 62.625 71.8125H71.375C71.7231 71.8125 72.0569 71.6742 72.3031 71.4281C72.5492 71.1819 72.6875 70.8481 72.6875 70.5V64.375C72.6875 64.0269 72.5492 63.6931 72.3031 63.4469C72.0569 63.2008 71.7231 63.0625 71.375 63.0625ZM68.9688 67.2188C68.9688 67.6081 68.8533 67.9888 68.637 68.3125C68.4206 68.6363 68.1131 68.8886 67.7534 69.0376C67.3937 69.1866 66.9978 69.2256 66.6159 69.1497C66.234 69.0737 65.8832 68.8862 65.6079 68.6109C65.3325 68.3355 65.145 67.9847 65.0691 67.6028C64.9931 67.2209 65.0321 66.8251 65.1811 66.4653C65.3301 66.1056 65.5825 65.7981 65.9062 65.5818C66.23 65.3655 66.6106 65.25 67 65.25C67.5221 65.25 68.0229 65.4574 68.3921 65.8266C68.7613 66.1958 68.9688 66.6966 68.9688 67.2188Z" fill="#A5A5A5"/>
</svg>
