<svg width="15" height="11" viewBox="0 0 15 11" fill="none" xmlns="http://www.w3.org/2000/svg">
<path d="M7.5 7.5C8.6046 7.5 9.50006 6.60457 9.50006 5.5C9.50006 4.39543 8.6046 3.5 7.5 3.5C6.3954 3.5 5.49994 4.39543 5.49994 5.5C5.49994 6.60457 6.3954 7.5 7.5 7.5Z" fill="black"/>
<path d="M14.9702 5.33C14.3821 3.80882 13.3612 2.49331 12.0335 1.54604C10.7059 0.598778 9.12979 0.0612865 7.5 0C5.87021 0.0612865 4.2941 0.598778 2.96647 1.54604C1.63884 2.49331 0.617885 3.80882 0.0297881 5.33C-0.00992938 5.43985 -0.00992938 5.56015 0.0297881 5.67C0.617885 7.19118 1.63884 8.50669 2.96647 9.45396C4.2941 10.4012 5.87021 10.9387 7.5 11C9.12979 10.9387 10.7059 10.4012 12.0335 9.45396C13.3612 8.50669 14.3821 7.19118 14.9702 5.67C15.0099 5.56015 15.0099 5.43985 14.9702 5.33ZM7.5 8.75C6.85719 8.75 6.22882 8.55939 5.69435 8.20228C5.15987 7.84516 4.7433 7.33758 4.49731 6.74372C4.25131 6.14986 4.18695 5.49639 4.31236 4.86596C4.43776 4.23552 4.7473 3.65642 5.20184 3.2019C5.65637 2.74738 6.23548 2.43785 6.86594 2.31245C7.49639 2.18705 8.14988 2.25141 8.74376 2.49739C9.33763 2.74338 9.84523 3.15994 10.2024 3.6944C10.5595 4.22886 10.7501 4.85721 10.7501 5.5C10.7488 6.36155 10.4059 7.18743 9.7967 7.79664C9.18748 8.40584 8.36157 8.74868 7.5 8.75Z" fill="black"/>
</svg>
