<svg width="14" height="14" viewBox="0 0 14 14" fill="none" xmlns="http://www.w3.org/2000/svg">
<path d="M13.7456 13.341L10.2254 9.82078C11.156 8.79188 11.7283 7.43928 11.7283 5.94795C11.7283 2.76298 9.13292 0.167603 5.94795 0.167603C2.76298 0.167603 0.167603 2.76298 0.167603 5.94795C0.167603 9.13292 2.76298 11.7283 5.94795 11.7283C7.43928 11.7283 8.79188 11.156 9.82078 10.2254L13.341 13.7456C13.3988 13.8034 13.474 13.8323 13.5433 13.8323C13.6127 13.8323 13.6936 13.8034 13.7456 13.7456C13.8612 13.63 13.8612 13.4508 13.7456 13.3352V13.341ZM0.745637 5.94795C0.745637 3.0809 3.0809 0.745637 5.94795 0.745637C8.815 0.745637 11.1503 3.0809 11.1503 5.94795C11.1503 8.815 8.815 11.1503 5.94795 11.1503C3.0809 11.1503 0.745637 8.815 0.745637 5.94795Z" fill="#FFB5B1"/>
</svg>
