<svg width="16" height="14" viewBox="0 0 16 14" fill="none" xmlns="http://www.w3.org/2000/svg">
<path d="M3.76626 1.50867H15.327C15.4888 1.50867 15.616 1.3815 15.616 1.21965C15.616 1.0578 15.4888 0.930635 15.327 0.930635H3.76626C3.60441 0.930635 3.47724 1.0578 3.47724 1.21965C3.47724 1.3815 3.60441 1.50867 3.76626 1.50867Z" fill="white"/>
<path d="M15.327 12.4913H3.76626C3.60441 12.4913 3.47724 12.6185 3.47724 12.7803C3.47724 12.9422 3.60441 13.0694 3.76626 13.0694H15.327C15.4888 13.0694 15.616 12.9422 15.616 12.7803C15.616 12.6185 15.4888 12.4913 15.327 12.4913Z" fill="white"/>
<path d="M15.327 6.71098H3.76626C3.60441 6.71098 3.47724 6.83815 3.47724 7C3.47724 7.16185 3.60441 7.28902 3.76626 7.28902H15.327C15.4888 7.28902 15.616 7.16185 15.616 7C15.616 6.83815 15.4888 6.71098 15.327 6.71098Z" fill="white"/>
<path d="M0.876085 0.3526C0.396317 0.3526 0.0090332 0.739883 0.0090332 1.21965C0.0090332 1.69942 0.396317 2.0867 0.876085 2.0867C1.35585 2.0867 1.74314 1.69942 1.74314 1.21965C1.74314 0.739883 1.35585 0.3526 0.876085 0.3526Z" fill="white"/>
<path d="M0.876085 6.13295C0.396317 6.13295 0.0090332 6.52023 0.0090332 7C0.0090332 7.47977 0.396317 7.86705 0.876085 7.86705C1.35585 7.86705 1.74314 7.47977 1.74314 7C1.74314 6.52023 1.35585 6.13295 0.876085 6.13295Z" fill="white"/>
<path d="M0.876085 11.9133C0.396317 11.9133 0.0090332 12.3006 0.0090332 12.7803C0.0090332 13.2601 0.396317 13.6474 0.876085 13.6474C1.35585 13.6474 1.74314 13.2601 1.74314 12.7803C1.74314 12.3006 1.35585 11.9133 0.876085 11.9133Z" fill="white"/>
</svg>
