<svg width="21" height="20" viewBox="0 0 21 20" fill="none" xmlns="http://www.w3.org/2000/svg">
<path d="M6.76626 4.50867H18.327C18.4888 4.50867 18.616 4.3815 18.616 4.21965C18.616 4.0578 18.4888 3.93063 18.327 3.93063H6.76626C6.60441 3.93063 6.47724 4.0578 6.47724 4.21965C6.47724 4.3815 6.60441 4.50867 6.76626 4.50867Z" fill="#FFB5B1"/>
<path d="M18.327 15.4913H6.76626C6.60441 15.4913 6.47724 15.6185 6.47724 15.7803C6.47724 15.9422 6.60441 16.0694 6.76626 16.0694H18.327C18.4888 16.0694 18.616 15.9422 18.616 15.7803C18.616 15.6185 18.4888 15.4913 18.327 15.4913Z" fill="#FFB5B1"/>
<path d="M18.327 9.71098H6.76626C6.60441 9.71098 6.47724 9.83815 6.47724 10C6.47724 10.1618 6.60441 10.289 6.76626 10.289H18.327C18.4888 10.289 18.616 10.1618 18.616 10C18.616 9.83815 18.4888 9.71098 18.327 9.71098Z" fill="#FFB5B1"/>
<path d="M3.87609 3.3526C3.39632 3.3526 3.00903 3.73988 3.00903 4.21965C3.00903 4.69942 3.39632 5.0867 3.87609 5.0867C4.35585 5.0867 4.74314 4.69942 4.74314 4.21965C4.74314 3.73988 4.35585 3.3526 3.87609 3.3526Z" fill="#FFB5B1"/>
<path d="M3.87609 9.13295C3.39632 9.13295 3.00903 9.52023 3.00903 10C3.00903 10.4798 3.39632 10.8671 3.87609 10.8671C4.35585 10.8671 4.74314 10.4798 4.74314 10C4.74314 9.52023 4.35585 9.13295 3.87609 9.13295Z" fill="#FFB5B1"/>
<path d="M3.87609 14.9133C3.39632 14.9133 3.00903 15.3006 3.00903 15.7803C3.00903 16.2601 3.39632 16.6474 3.87609 16.6474C4.35585 16.6474 4.74314 16.2601 4.74314 15.7803C4.74314 15.3006 4.35585 14.9133 3.87609 14.9133Z" fill="#FFB5B1"/>
</svg>
