<svg width="16" height="17" viewBox="0 0 16 17" fill="none" xmlns="http://www.w3.org/2000/svg">
<path d="M14.8497 0C14.3699 0 13.9827 0.387283 13.9827 0.867052C13.9827 1.07514 14.0578 1.26012 14.1792 1.4104L10.3699 7.60694C10.3121 7.59538 10.2486 7.5896 10.1908 7.5896C9.81503 7.5896 9.49711 7.83237 9.37572 8.16763H6.34104C6.21965 7.83237 5.90173 7.5896 5.52601 7.5896C5.04624 7.5896 4.65896 7.97688 4.65896 8.45665C4.65896 8.66474 4.7341 8.84971 4.85549 9L1.04624 15.1965C0.988439 15.185 0.924856 15.1792 0.867052 15.1792C0.387283 15.1792 0 15.5665 0 16.0462C0 16.526 0.387283 16.9133 0.867052 16.9133C1.34682 16.9133 1.7341 16.526 1.7341 16.0462C1.7341 15.8382 1.65896 15.6532 1.53757 15.5029L5.34682 9.30636C5.40462 9.31792 5.46821 9.3237 5.52601 9.3237C5.90173 9.3237 6.21965 9.08092 6.34104 8.74566H9.37572C9.49711 9.08092 9.81503 9.3237 10.1908 9.3237C10.6705 9.3237 11.0578 8.93642 11.0578 8.45665C11.0578 8.24855 10.9827 8.06358 10.8613 7.9133L14.6705 1.71676C14.7283 1.72832 14.7919 1.7341 14.8497 1.7341C15.3295 1.7341 15.7168 1.34682 15.7168 0.867052C15.7168 0.387283 15.3295 0 14.8497 0Z" fill="#FFB5B1"/>
</svg>
