<svg width="14" height="18" viewBox="0 0 14 18" fill="none" xmlns="http://www.w3.org/2000/svg">
<path d="M13.763 4.83813V4.78032L9.71677 0.618472C9.65897 0.618472 9.54336 0.560669 9.48556 0.560669H1.62429C0.815037 0.560669 0.179199 1.19651 0.179199 2.00576V15.9942C0.179199 16.8034 0.815037 17.4393 1.62429 17.4393H12.3757C13.185 17.4393 13.8208 16.8034 13.8208 15.9942V4.89593C13.8208 4.89593 13.8208 4.83813 13.763 4.83813ZM9.77458 1.54333L12.8382 4.66472H9.77458V1.54333ZM13.2428 15.9942C13.2428 16.4566 12.8382 16.8612 12.3757 16.8612H1.62429C1.16186 16.8612 0.757234 16.4566 0.757234 15.9942V2.00576C0.757234 1.54333 1.16186 1.1387 1.62429 1.1387H9.19654V5.01154C9.19654 5.18495 9.31215 5.30055 9.48556 5.30055H13.2428V15.9942Z" fill="#FFB5B1"/>
<path d="M6.09249 7.95951H3.78036C3.61851 7.95951 3.49134 8.08668 3.49134 8.24853V15.1849C3.49134 15.3468 3.61851 15.474 3.78036 15.474H6.09249C6.25434 15.474 6.38151 15.3468 6.38151 15.1849V8.24853C6.38151 8.08668 6.25434 7.95951 6.09249 7.95951ZM5.80348 14.8959H4.06937V8.53755H5.80348V14.8959Z" fill="#FFB5B1"/>
<path d="M7.84972 11.2948V15.1849C7.84972 15.3468 7.97689 15.474 8.13874 15.474H10.4509C10.6127 15.474 10.7399 15.3468 10.7399 15.1849V11.2948C10.7399 11.1329 10.6127 11.0058 10.4509 11.0058H8.13874C7.97689 11.0058 7.84972 11.1329 7.84972 11.2948ZM8.42776 11.5838H10.1619V14.8959H8.42776V11.5838Z" fill="#FFB5B1"/>
<path d="M3.59537 5.64737H4.89884H7.21098C7.37283 5.64737 7.5 5.52021 7.5 5.35836C7.5 5.19651 7.37283 5.06934 7.21098 5.06934H3.59537C3.43352 5.06934 3.30635 5.19651 3.30635 5.35836C3.30635 5.52021 3.43352 5.64737 3.59537 5.64737Z" fill="#FFB5B1"/>
<path d="M3.59537 3.33524H7.21098C7.37283 3.33524 7.5 3.20807 7.5 3.04622C7.5 2.88437 7.37283 2.7572 7.21098 2.7572H3.59537C3.43352 2.7572 3.30635 2.88437 3.30635 3.04622C3.30635 3.20807 3.43352 3.33524 3.59537 3.33524Z" fill="#FFB5B1"/>
</svg>
