<svg width="16" height="14" viewBox="0 0 16 14" fill="none" xmlns="http://www.w3.org/2000/svg">
<path d="M9.58879 6.49708C10.6466 5.93061 11.3691 4.815 11.3691 3.53176C11.3691 1.67627 9.86047 0.167603 8.00497 0.167603C6.14948 0.167603 4.64081 1.67627 4.64081 3.53176C4.64081 4.815 5.36336 5.93061 6.42116 6.49708C3.19573 7.21963 0.779541 10.104 0.779541 13.5433C0.779541 13.7052 0.906709 13.8323 1.06856 13.8323C1.23041 13.8323 1.35758 13.7052 1.35758 13.5433C1.35758 9.87859 4.34023 6.89593 8.00497 6.89593C11.6697 6.89593 14.6524 9.87859 14.6524 13.5433C14.6524 13.7052 14.7795 13.8323 14.9414 13.8323C15.1032 13.8323 15.2304 13.7052 15.2304 13.5433C15.2304 10.104 12.8142 7.22541 9.58879 6.49708ZM5.21885 3.53176C5.21885 1.99419 6.4674 0.745637 8.00497 0.745637C9.54255 0.745637 10.7911 1.99419 10.7911 3.53176C10.7911 5.06934 9.54255 6.31789 8.00497 6.31789C6.4674 6.31789 5.21885 5.06934 5.21885 3.53176Z" fill="#FFB5B1"/>
</svg>
